<svg id="Group_414" data-name="Group 414" xmlns="http://www.w3.org/2000/svg" xmlns:xlink="http://www.w3.org/1999/xlink" width="46.412" height="46.746" viewBox="0 0 46.412 46.746">
  <defs>
    <linearGradient id="linear-gradient" x1="0.084" y1="1.105" x2="0.984" y2="-0.02" gradientUnits="objectBoundingBox">
      <stop offset="0" stop-color="#b3e152"/>
      <stop offset="1" stop-color="#f6e46f"/>
    </linearGradient>
    <linearGradient id="linear-gradient-2" x1="-0.25" y1="0.75" x2="0.75" y2="-0.25" xlink:href="#linear-gradient"/>
    <linearGradient id="linear-gradient-3" x1="0.25" y1="1.25" x2="1.25" y2="0.25" xlink:href="#linear-gradient"/>
  </defs>
  <path id="Path_896" data-name="Path 896" d="M33.019,209.53H27.175V192H21.332v5.843" transform="translate(-19.384 -174.47)" fill="#fff"/>
  <path id="Path_897" data-name="Path 897" d="M13.634,97.019v-3.9h-3.9V85.332h-3.9v7.791h-3.9A1.948,1.948,0,0,0,0,95.071v5.843H3.9v-3.9H5.843V112.6a1.948,1.948,0,0,0,1.948,1.948h5.843v-3.9h-3.9V97.019Zm0,0" transform="translate(0 -77.541)" fill="#d9f0a9"/>
  <path id="Path_898" data-name="Path 898" d="M153.321,0H133.843A5.843,5.843,0,0,0,128,5.843v40.9h31.164V5.843A5.843,5.843,0,0,0,153.321,0Zm0,0" transform="translate(-116.313)" fill="#b3e152"/>
  <path id="Path_899" data-name="Path 899" d="M137.739,0h-3.9A5.843,5.843,0,0,0,128,5.843v40.9h3.9V5.843A5.843,5.843,0,0,1,137.739,0Zm0,0" transform="translate(-116.313)" fill="#a0d927"/>
  <path id="Path_900" data-name="Path 900" d="M192,64h19.478V79.582H192Zm0,0" transform="translate(-174.47 -58.157)" fill="#fff"/>
  <path id="Path_901" data-name="Path 901" d="M205.513,64,192,77.513v2.07h8.643l10.834-10.835V64Zm0,0" transform="translate(-174.47 -58.157)" fill="url(#linear-gradient)"/>
  <path id="Path_902" data-name="Path 902" d="M192,64v9.252L201.252,64Zm0,0" transform="translate(-174.47 -58.157)" fill="url(#linear-gradient-2)"/>
  <path id="Path_903" data-name="Path 903" d="M304,142.584h9.252v-9.252Zm0,0" transform="translate(-276.244 -121.159)" fill="url(#linear-gradient-3)"/>
  <path id="Path_904" data-name="Path 904" d="M192.093,62.146H172.616a1.948,1.948,0,0,1-1.948-1.948V44.616a1.948,1.948,0,0,1,1.948-1.948h19.478a1.948,1.948,0,0,1,1.948,1.948V60.2A1.948,1.948,0,0,1,192.093,62.146Zm-17.53-3.9h15.582V46.563H174.563Zm0,0" transform="translate(-155.086 -38.772)" fill="#e2f4be"/>
  <path id="Path_905" data-name="Path 905" d="M342.337,196.232a1.95,1.95,0,0,0-1.483-.568c-1.583.086-9.617.648-12.29,3.322A7.791,7.791,0,0,0,339.583,210c2.674-2.674,3.237-10.707,3.323-12.29A1.947,1.947,0,0,0,342.337,196.232Zm0,0" transform="translate(-296.496 -177.797)" fill="#c6e87d"/>
  <path id="Path_906" data-name="Path 906" d="M323.9,281.421H320c0-18.521,8.506-22.987,8.868-23.167l1.742,3.484.027-.014C330.57,261.76,323.9,265.558,323.9,281.421Zm0,0" transform="translate(-290.784 -234.675)" fill="#e2f4be"/>
</svg>
