<svg id="Group_411" data-name="Group 411" xmlns="http://www.w3.org/2000/svg" xmlns:xlink="http://www.w3.org/1999/xlink" width="46.747" height="46.746" viewBox="0 0 46.747 46.746">
  <defs>
    <linearGradient id="linear-gradient" y1="0.875" x2="1" y2="0.125" gradientUnits="objectBoundingBox">
      <stop offset="0" stop-color="#b3e152"/>
      <stop offset="1" stop-color="#f6e46f"/>
    </linearGradient>
  </defs>
  <path id="Path_910" data-name="Path 910" d="M137.922,126.059a11.864,11.864,0,1,0,11.864,11.864A11.877,11.877,0,0,0,137.922,126.059Zm0,0" transform="translate(-114.549 -114.549)" fill="#ecf7d4"/>
  <path id="Path_911" data-name="Path 911" d="M141.877,152.274a11.858,11.858,0,0,1-7.178-21.3,11.861,11.861,0,1,0,10.4,20.853A11.812,11.812,0,0,1,141.877,152.274Zm0,0" transform="translate(-114.549 -119.015)" fill="#e2f4be"/>
  <path id="Path_912" data-name="Path 912" d="M202.9,177.284H198.94l1.977-7.909-9.886,7.909h3.954l-1.977,7.909Zm0,0" transform="translate(-173.59 -153.911)" fill="url(#linear-gradient)"/>
  <path id="Path_913" data-name="Path 913" d="M15.091,46.749A15.016,15.016,0,0,1,4.179,42.57C.527,38.919-.793,33.454.461,27.183a34.351,34.351,0,0,1,9.65-17.069A34.349,34.349,0,0,1,27.18.465C33.451-.789,38.915.531,42.567,4.183s4.972,9.116,3.717,15.387a34.353,34.353,0,0,1-9.649,17.069,34.352,34.352,0,0,1-17.069,9.649A22.861,22.861,0,0,1,15.091,46.749ZM31.634,3.96a18.8,18.8,0,0,0-3.679.382,30.377,30.377,0,0,0-15.048,8.568A30.376,30.376,0,0,0,4.339,27.959c-.986,4.933-.05,9.129,2.636,11.815S13.857,43.4,18.791,42.41a30.377,30.377,0,0,0,15.048-8.568,30.375,30.375,0,0,0,8.568-15.048c.987-4.933.051-9.129-2.636-11.815A11.182,11.182,0,0,0,31.634,3.96Zm0,0" transform="translate(0 -0.003)" fill="#b3e152"/>
  <path id="Path_914" data-name="Path 914" d="M31.654,46.748a22.86,22.86,0,0,1-4.474-.461,34.351,34.351,0,0,1-17.068-9.649A34.351,34.351,0,0,1,.461,19.568C-.793,13.3.527,7.832,4.179,4.181S13.3-.791,19.566.463a34.348,34.348,0,0,1,17.069,9.649,34.348,34.348,0,0,1,9.649,17.069c1.254,6.271-.066,11.735-3.717,15.387A15.016,15.016,0,0,1,31.654,46.748ZM15.112,3.959A11.181,11.181,0,0,0,6.975,6.977C4.289,9.664,3.353,13.86,4.339,18.793a30.38,30.38,0,0,0,8.568,15.048,30.373,30.373,0,0,0,15.048,8.568c4.933.986,9.129.051,11.815-2.636s3.623-6.883,2.636-11.815a30.374,30.374,0,0,0-8.568-15.048A30.377,30.377,0,0,0,18.791,4.341,18.792,18.792,0,0,0,15.112,3.959Zm0,0" transform="translate(0 -0.002)" fill="#cfec93"/>
  <path id="Path_915" data-name="Path 915" d="M56.686,88.344a15.015,15.015,0,0,1-10.913-4.179l2.8-2.8c2.686,2.686,6.882,3.622,11.815,2.636a30.376,30.376,0,0,0,15.048-8.568A30.375,30.375,0,0,0,84,60.389c.987-4.933.051-9.129-2.636-11.815l2.8-2.8c3.651,3.651,4.972,9.116,3.717,15.387a34.349,34.349,0,0,1-9.649,17.069,34.347,34.347,0,0,1-17.069,9.649A22.855,22.855,0,0,1,56.686,88.344Zm0,0" transform="translate(-41.594 -41.598)" fill="#b3e152"/>
</svg>
