<svg id="Group_412" data-name="Group 412" xmlns="http://www.w3.org/2000/svg" xmlns:xlink="http://www.w3.org/1999/xlink" width="47.101" height="46.38" viewBox="0 0 47.101 46.38">
  <defs>
    <linearGradient id="linear-gradient" x1="-0.023" y1="0.868" x2="1.068" y2="0.162" gradientUnits="objectBoundingBox">
      <stop offset="0" stop-color="#b3e152"/>
      <stop offset="1" stop-color="#f6e46f"/>
    </linearGradient>
  </defs>
  <path id="Path_907" data-name="Path 907" d="M348.763,68.186l-5.888-2.109a1.979,1.979,0,0,1-.232-3.595,19.634,19.634,0,0,0,0-34.973l1.787-3.495a23.563,23.563,0,0,1,3.562,39.726l2.093.75Zm0,0" transform="translate(-310.174 -21.806)" fill="#b3e152"/>
  <path id="Path_908" data-name="Path 908" d="M12.844,44.171A23.564,23.564,0,0,1,9.282,4.445L7.188,3.7,8.512,0,14.4,2.109A1.979,1.979,0,0,1,14.631,5.7a19.634,19.634,0,0,0,0,34.973Zm0,0" transform="translate(0)" fill="#b3e152"/>
  <path id="Path_909" data-name="Path 909" d="M149.588,75.081h-9.813l5.888-17.663L128,75.081h7.85l-3.925,15.7Zm0,0" transform="translate(-116.225 -52.136)" fill="url(#linear-gradient)"/>
</svg>
